<?xml version="1.0" encoding="iso-8859-1"?>
<!-- Uploaded to: SVG Repo, www.svgrepo.com, Generator: SVG Repo Mixer Tools -->
<svg version="1.1" id="Layer_1" xmlns="http://www.w3.org/2000/svg" xmlns:xlink="http://www.w3.org/1999/xlink" 
	 viewBox="0 0 511.999 511.999" xml:space="preserve">
<rect x="63.099" y="203.085" style="fill:#E7AD7C;" width="385.806" height="254.736"/>
<g>
	<polygon style="fill:#FF4444;" points="498.002,203.079 13.997,203.079 69.986,54.182 442.013,54.182 	"/>
	<rect x="300.101" y="272.078" style="fill:#FF4444;" width="89.556" height="185.744"/>
</g>
<rect x="125.485" y="272.078" style="fill:#B5DDF8;" width="121.076" height="86.549"/>
<path d="M511.104,198.154L455.115,49.257c-2.052-5.458-7.272-9.07-13.101-9.07H69.986c-5.83,0-11.049,3.614-13.101,9.07
	L0.896,198.154c-1.617,4.299-1.02,9.118,1.594,12.894c2.615,3.776,6.915,6.03,11.509,6.03h35.104v240.737
	c0,7.731,6.267,13.997,13.997,13.997h237.007h89.554h59.242c7.729,0,13.997-6.267,13.997-13.997V217.078h35.102
	c4.593,0,8.894-2.254,11.509-6.03C512.126,207.272,512.719,202.452,511.104,198.154z M314.102,443.818V286.071h61.56v157.748
	H314.102z M434.906,443.818h-31.247V272.073c0-7.731-6.268-13.997-13.997-13.997h-89.554c-7.729,0-13.997,6.267-13.997,13.997
	v171.745H77.095v-226.74h357.81V443.818z M448.903,189.084H63.098H34.215L79.678,68.18h352.645l25.44,67.653H154.08
	c-7.731,0-13.997,6.267-13.997,13.997c0,7.731,6.267,13.997,13.997,13.997h314.209l9.497,25.255h-28.883V189.084z"/>
<path d="M125.482,372.62h121.076c7.731,0,13.997-6.267,13.997-13.997v-86.551c0-7.731-6.267-13.997-13.997-13.997H125.482
	c-7.731,0-13.997,6.267-13.997,13.997v86.551C111.485,366.353,117.752,372.62,125.482,372.62z M139.48,286.071h93.082v58.555H139.48
	L139.48,286.071L139.48,286.071z"/>
<path d="M112.094,163.827c-3.695,0-7.293-1.498-9.91-4.101c-0.644-0.644-1.232-1.358-1.736-2.128
	c-0.504-0.756-0.938-1.568-1.288-2.408c-0.35-0.854-0.616-1.736-0.798-2.631s-0.266-1.82-0.266-2.729
	c0-0.91,0.084-1.834,0.266-2.729c0.182-0.896,0.448-1.778,0.798-2.617c0.35-0.854,0.784-1.666,1.288-2.422
	c0.504-0.77,1.092-1.484,1.736-2.128c0.644-0.644,1.372-1.232,2.128-1.736c0.77-0.504,1.582-0.938,2.422-1.288
	s1.722-0.616,2.617-0.798c1.806-0.364,3.667-0.364,5.473,0c0.896,0.182,1.778,0.448,2.617,0.798s1.652,0.784,2.422,1.288
	c0.756,0.504,1.47,1.092,2.128,1.736c0.644,0.644,1.232,1.358,1.736,2.128c0.504,0.756,0.938,1.568,1.288,2.422
	c0.35,0.84,0.616,1.722,0.798,2.617c0.182,0.896,0.28,1.82,0.28,2.729c0,0.91-0.098,1.834-0.28,2.729
	c-0.182,0.896-0.448,1.778-0.798,2.631c-0.35,0.84-0.784,1.652-1.288,2.408c-0.504,0.77-1.092,1.484-1.736,2.128
	c-0.658,0.644-1.372,1.232-2.128,1.75c-0.77,0.504-1.582,0.938-2.422,1.288c-0.84,0.35-1.722,0.616-2.617,0.798
	C113.914,163.742,113.004,163.827,112.094,163.827z"/>
</svg>